<svg id="Layer_1" data-name="Layer 1" xmlns="http://www.w3.org/2000/svg" viewBox="0 0 512 512"><title>attachment</title><path d="M512,256c0,141.38-114.61,256-256,256S0,397.39,0,256,114.61,0,256,0,512,114.62,512,256Z" fill="#404041"/><path d="M28,139.52,139.52,28A257.1,257.1,0,0,0,28,139.52Z" fill="#4d4d4f"/><path d="M179.06,11.77,11.77,179.06a254.14,254.14,0,0,0-6.43,24.69L203.75,5.34A253.94,253.94,0,0,0,179.06,11.77Z" fill="#4d4d4f"/><path d="M231.24,1.2l-230,230Q.27,240.84.07,250.64L250.63.07Q240.84.27,231.24,1.2Z" fill="#4d4d4f"/><path d="M273.44.6.6,273.43q.56,8.39,1.66,16.63L290.05,2.26Q281.83,1.17,273.44.6Z" fill="#4d4d4f"/><path d="M309.94,5.71,5.71,309.95q1.59,7.41,3.6,14.66L324.6,9.31Q317.35,7.3,309.94,5.71Z" fill="#4d4d4f"/><path d="M342.32,14.93,14.94,342.33Q17.32,349,20,355.47L355.46,20Q349,17.31,342.32,14.93Z" fill="#4d4d4f"/><path d="M371.41,27.44l-344,344q3,6,6.39,11.86L383.28,33.83Q377.44,30.48,371.41,27.44Z" fill="#4d4d4f"/><path d="M397.69,42.77,42.77,397.69q3.63,5.46,7.53,10.72L408.42,50.31Q403.16,46.4,397.69,42.77Z" fill="#4d4d4f"/><path d="M421.43,60.64,60.65,421.43q4.18,4.93,8.6,9.65L431.08,69.25Q426.36,64.82,421.43,60.64Z" fill="#4d4d4f"/><path d="M442.75,80.91,80.92,442.75q4.72,4.42,9.65,8.6L451.37,90.58Q447.18,85.64,442.75,80.91Z" fill="#4d4d4f"/><path d="M461.69,103.58,103.58,461.69q5.26,3.91,10.73,7.54L469.23,114.31Q465.59,108.85,461.69,103.58Z" fill="#4d4d4f"/><path d="M478.17,128.72,128.71,478.16q5.84,3.35,11.88,6.4l344-344Q481.51,134.56,478.17,128.72Z" fill="#4d4d4f"/><path d="M492,156.53,156.53,492q6.48,2.73,13.14,5.11L497.06,169.67Q494.68,163,492,156.53Z" fill="#4d4d4f"/><path d="M502.69,187.41,187.4,502.69q7.24,2,14.66,3.6L506.29,202.06Q504.7,194.65,502.69,187.41Z" fill="#4d4d4f"/><path d="M509.74,222,221.94,509.74q8.23,1.09,16.62,1.66L511.4,238.56Q510.83,230.18,509.74,222Z" fill="#4d4d4f"/><path d="M510.81,280.75q.92-9.59,1.13-19.38L261.37,511.93q9.79-.2,19.39-1.13Z" fill="#4d4d4f"/><path d="M332.92,500.23,500.23,332.92a254,254,0,0,0,6.42-24.68L308.23,506.66A254.22,254.22,0,0,0,332.92,500.23Z" fill="#4d4d4f"/><path d="M484,372.49,372.48,484A257.12,257.12,0,0,0,484,372.49Z" fill="#4d4d4f"/><path d="M257,328.56a8,8,0,0,0,1,11.26,8.15,8.15,0,0,0,11.37-1l86.72-102.72C374.71,214,376,190.88,367.28,172.68a57.07,57.07,0,0,0-15.46-19.47,61.28,61.28,0,0,0-22.56-11.53c-21.83-5.92-48.22-.31-69.71,24.32l-104,119.17c-17.78,20.4-19.29,42.31-11.76,59.08A48.13,48.13,0,0,0,156.24,361a46.79,46.79,0,0,0,18.38,9.86c16.61,4.49,36.25-.12,52.56-19.34L302,263.38c8.76-10.34,13-20.28,13.83-29.05A31,31,0,0,0,311.67,215h0a31,31,0,0,0-14.17-12.25,38.92,38.92,0,0,0-23.93-2.06c-5.94,1.31-11.44,4.27-16.73,8.44a105.37,105.37,0,0,0-14.19,14l-70.5,81.47a8,8,0,0,0,.87,11.26,8.13,8.13,0,0,0,11.37-.85l70.5-81.47a91.31,91.31,0,0,1,12-12A26,26,0,0,1,277,216.28a22.64,22.64,0,0,1,14,1,14.89,14.89,0,0,1,6.88,5.82v0a15.39,15.39,0,0,1,1.93,9.61c-.57,5.79-3.65,12.68-10.11,20.33l-74.83,88.17c-11.63,13.71-25,17.17-36,14.19a30.66,30.66,0,0,1-12-6.43,32.41,32.41,0,0,1-8.38-11.25c-5.19-11.59-3.81-27.1,9.29-42.15l104-119.17c16.8-19.26,36.86-23.8,53.21-19.35a44.73,44.73,0,0,1,16.58,8.44,41,41,0,0,1,11.14,14c6.19,12.94,5,29.78-9,46.32Z" fill="#fff"/></svg>